<svg xmlns="http://www.w3.org/2000/svg" viewBox="0 0 1200 630">
  <defs>
    <linearGradient id="bg" x1="0" y1="0" x2="1" y2="1">
      <stop offset="0" stop-color="#1c1d21"/>
      <stop offset="1" stop-color="#151515"/>
    </linearGradient>
  </defs>
  <rect width="1200" height="630" fill="url(#bg)"/>
  <rect x="0" y="0" width="1200" height="8" fill="#c99a2c"/>
  <ellipse cx="210" cy="250" rx="130" ry="88" fill="none" stroke="#c99a2c" stroke-width="16"/>
  <path d="M184 278c-8-42 6-78 36-96-15 36-17 68-7 96 5 15 2 28-8 34 23 4 51-6 71-24-25 3-43-3-53-13 33 2 61-8 79-28-21 8-43 8-59-1 21-18 33-41 35-70 11 23 16 50 11 78-6 37-37 62-80 62s-74-25-80-62c-5-28 0-55 11-78 2 29 14 52 35 70-16 10-38 10-59 1 18 20 46 30 79 28-13-11-21-31-21-50z" fill="#c99a2c"/>
  <text x="390" y="238" font-family="Arial, Helvetica, sans-serif" font-size="100" font-weight="800" fill="#f0f1f4">LADA SAMARA</text>
  <text x="390" y="340" font-family="Arial, Helvetica, sans-serif" font-size="44" font-weight="400" fill="#c99a2c">Руководство по эксплуатации</text>
  <text x="390" y="430" font-family="Arial, Helvetica, sans-serif" font-size="30" fill="#9a9ca3">Кузов и салон • Органы управления • Эксплуатация</text>
  <text x="390" y="478" font-family="Arial, Helvetica, sans-serif" font-size="30" fill="#9a9ca3">Техническое обслуживание • Характеристики • Приложения</text>
  <rect x="390" y="530" width="330" height="56" rx="28" fill="none" stroke="#c99a2c" stroke-width="3"/>
  <text x="555" y="567" text-anchor="middle" font-family="Arial, Helvetica, sans-serif" font-size="26" fill="#c99a2c">Работает офлайн (PWA)</text>
</svg>
